<svg width="52" height="41" viewBox="0 0 52 41" fill="none" xmlns="http://www.w3.org/2000/svg">
<path d="M51.23 20.1056L45.7925 7.41812C45.6537 7.09052 45.4216 6.81099 45.1251 6.61439C44.8286 6.41778 44.4808 6.31279 44.125 6.3125H38.6875V2.6875C38.6875 2.2068 38.4965 1.74578 38.1566 1.40587C37.8167 1.06596 37.3557 0.875 36.875 0.875H2.4375C1.9568 0.875 1.49578 1.06596 1.15587 1.40587C0.815959 1.74578 0.625 2.2068 0.625 2.6875V33.5C0.625 33.9807 0.815959 34.4417 1.15587 34.7816C1.49578 35.1215 1.9568 35.3125 2.4375 35.3125H6.31625C6.73364 36.8484 7.64482 38.2042 8.90921 39.1708C10.1736 40.1375 11.7209 40.6612 13.3125 40.6612C14.9041 40.6612 16.4514 40.1375 17.7158 39.1708C18.9802 38.2042 19.8914 36.8484 20.3088 35.3125H31.6912C32.1086 36.8484 33.0198 38.2042 34.2842 39.1708C35.5486 40.1375 37.0959 40.6612 38.6875 40.6612C40.2791 40.6612 41.8264 40.1375 43.0908 39.1708C44.3552 38.2042 45.2664 36.8484 45.6838 35.3125H49.5625C50.0432 35.3125 50.5042 35.1215 50.8441 34.7816C51.184 34.4417 51.375 33.9807 51.375 33.5V20.8125C51.3745 20.5695 51.3252 20.3292 51.23 20.1056ZM38.6875 9.9375H42.9287L46.8075 19H38.6875V9.9375ZM13.3125 37.125C12.5955 37.125 11.8947 36.9124 11.2986 36.5141C10.7024 36.1158 10.2378 35.5496 9.96344 34.8872C9.68907 34.2248 9.61728 33.496 9.75715 32.7928C9.89702 32.0896 10.2423 31.4437 10.7492 30.9367C11.2562 30.4298 11.9021 30.0845 12.6053 29.9447C13.3085 29.8048 14.0373 29.8766 14.6997 30.1509C15.3621 30.4253 15.9283 30.8899 16.3266 31.4861C16.7249 32.0822 16.9375 32.783 16.9375 33.5C16.9375 34.4614 16.5556 35.3834 15.8758 36.0633C15.1959 36.7431 14.2739 37.125 13.3125 37.125ZM31.6912 31.6875H20.3088C19.8914 30.1516 18.9802 28.7958 17.7158 27.8292C16.4514 26.8625 14.9041 26.3388 13.3125 26.3388C11.7209 26.3388 10.1736 26.8625 8.90921 27.8292C7.64482 28.7958 6.73364 30.1516 6.31625 31.6875H4.25V4.5H35.0625V27.265C34.2372 27.744 33.5145 28.3813 32.936 29.1402C32.3575 29.8991 31.9345 30.7647 31.6912 31.6875ZM38.6875 37.125C37.9705 37.125 37.2697 36.9124 36.6736 36.5141C36.0774 36.1158 35.6128 35.5496 35.3384 34.8872C35.0641 34.2248 34.9923 33.496 35.1322 32.7928C35.272 32.0896 35.6173 31.4437 36.1242 30.9367C36.6312 30.4298 37.2771 30.0845 37.9803 29.9447C38.6835 29.8048 39.4123 29.8766 40.0747 30.1509C40.7371 30.4253 41.3033 30.8899 41.7016 31.4861C42.0999 32.0822 42.3125 32.783 42.3125 33.5C42.3125 34.4614 41.9306 35.3834 41.2508 36.0633C40.5709 36.7431 39.6489 37.125 38.6875 37.125ZM47.75 31.6875H45.6838C45.2829 30.1351 44.3789 28.7594 43.113 27.7756C41.8471 26.7917 40.2908 26.2552 38.6875 26.25V22.625H47.75V31.6875Z" fill="black"/>
</svg>
