<svg width="43" height="49" viewBox="0 0 43 49" fill="none" xmlns="http://www.w3.org/2000/svg">
<path d="M21.5 48.7083V44.125H37.5417V41.8333H28.375V23.5H37.5417V21.2083C37.5417 16.7778 35.9757 12.9965 32.8438 9.86456C29.7118 6.73262 25.9306 5.16665 21.5 5.16665C17.0694 5.16665 13.2882 6.73262 10.1563 9.86456C7.02431 12.9965 5.45833 16.7778 5.45833 21.2083V23.5H14.625V41.8333H5.45833C4.19792 41.8333 3.11854 41.3849 2.22021 40.4881C1.3234 39.5898 0.875 38.5104 0.875 37.25V21.2083C0.875 18.3819 1.41889 15.7175 2.50667 13.215C3.59597 10.714 5.07639 8.52776 6.94792 6.65623C8.81945 4.7847 11.0057 3.30429 13.5067 2.21498C16.0092 1.1272 18.6736 0.583313 21.5 0.583313C24.3264 0.583313 26.9908 1.1272 29.4933 2.21498C31.9943 3.30429 34.1806 4.7847 36.0521 6.65623C37.9236 8.52776 39.404 10.714 40.4933 13.215C41.5811 15.7175 42.125 18.3819 42.125 21.2083V44.125C42.125 45.3854 41.6766 46.4648 40.7798 47.3631C39.8815 48.2599 38.8021 48.7083 37.5417 48.7083H21.5ZM5.45833 37.25H10.0417V28.0833H5.45833V37.25ZM32.9583 37.25H37.5417V28.0833H32.9583V37.25ZM37.5417 37.25H32.9583H37.5417ZM10.0417 37.25H5.45833H10.0417Z" fill="black"/>
</svg>
